HIERARCHY
ROOT Hips
{
	OFFSET -3.958830 18.904000 13.208200
	CHANNELS 6 Xposition Yposition Zposition Zrotation Yrotation Xrotation 
	JOINT LHipJoint
	{
		OFFSET 0.000000 0.000000 0.000000
		CHANNELS 3 Zrotation Yrotation Xrotation
		JOINT LeftUpLeg
		{
			OFFSET 1.800000 -1.400000 0.085000
			CHANNELS 3 Zrotation Yrotation Xrotation
			JOINT LeftLeg
			{
				OFFSET 2.215000 -6.000000 0.000000
				CHANNELS 3 Zrotation Yrotation Xrotation
				JOINT LeftFoot
				{
					OFFSET 2.500000 -6.900000 0.000000
					CHANNELS 3 Zrotation Yrotation Xrotation
					JOINT LeftToeBase
					{
						OFFSET 0.200000 -0.500000 1.950000
						CHANNELS 3 Zrotation Yrotation Xrotation
						End Site
						{
							OFFSET 0.000000 0.000000 0.000000
						}
					}
				}
			}
		}
	}
	JOINT RHipJoint
	{
		OFFSET 0.000000 0.000000 0.000000
		CHANNELS 3 Zrotation Yrotation Xrotation
		JOINT RightUpLeg
		{
			OFFSET -1.800000 -1.400000 0.085000
			CHANNELS 3 Zrotation Yrotation Xrotation
			JOINT RightLeg
			{
				OFFSET -2.215000 -6.000000 0.000000
				CHANNELS 3 Zrotation Yrotation Xrotation
				JOINT RightFoot
				{
					OFFSET -2.500000 -6.900000 0.000000
					CHANNELS 3 Zrotation Yrotation Xrotation
					JOINT RightToeBase
					{
						OFFSET -0.200000 -0.500000 1.950000
						CHANNELS 3 Zrotation Yrotation Xrotation
						End Site
						{
							OFFSET 0.000000 0.000000 0.000000
						}
					}
				}
			}
		}
	}
	JOINT LowerBack
	{
		OFFSET 0.000000 0.000000 0.000000
		CHANNELS 3 Zrotation Yrotation Xrotation
		JOINT Spine
		{
			OFFSET -0.087000 1.940000 -0.288900
			CHANNELS 3 Zrotation Yrotation Xrotation
			JOINT Spine1
			{
				OFFSET 0.000000 1.950000 0.060000
				CHANNELS 3 Zrotation Yrotation Xrotation
				JOINT Neck
				{
					OFFSET 0.000000 0.000000 0.000000
					CHANNELS 3 Zrotation Yrotation Xrotation
					JOINT Neck1
					{
						OFFSET 0.000000 1.600000 0.340000
						CHANNELS 3 Zrotation Yrotation Xrotation
						JOINT Head
						{
							OFFSET 0.000000 1.667000 -0.240000
							CHANNELS 3 Zrotation Yrotation Xrotation
							End Site
							{
								OFFSET 0.000000 0.000000 0.000000
							}
						}
					}
				}
				JOINT LeftShoulder
				{
					OFFSET 0.000000 0.000000 0.000000
					CHANNELS 3 Zrotation Yrotation Xrotation
					JOINT LeftArm
					{
						OFFSET 2.700000 1.550000 -0.730000
						CHANNELS 3 Zrotation Yrotation Xrotation
						JOINT LeftForeArm
						{
							OFFSET 5.450000 0.000000 0.000000
							CHANNELS 3 Zrotation Yrotation Xrotation
							JOINT LeftHand
							{
								OFFSET 3.450000 0.000000 0.000000
								CHANNELS 3 Zrotation Yrotation Xrotation
								JOINT LeftHandIndex1
								{
									OFFSET 0.750000 0.000000 0.000000
									CHANNELS 3 Zrotation Yrotation Xrotation
									End Site
									{
										OFFSET 0.000000 0.000000 0.000000
									}
								}
							}
						}
					}
				}
				JOINT RightShoulder
				{
					OFFSET 0.000000 0.000000 0.000000
					CHANNELS 3 Zrotation Yrotation Xrotation
					JOINT RightArm
					{
						OFFSET -2.700000 1.550000 -0.730000
						CHANNELS 3 Zrotation Yrotation Xrotation
						JOINT RightForeArm
						{
							OFFSET -5.450000 0.000000 0.000000
							CHANNELS 3 Zrotation Yrotation Xrotation
							JOINT RightHand
							{
								OFFSET -3.450000 0.000000 0.000000
								CHANNELS 3 Zrotation Yrotation Xrotation
								JOINT RightHandIndex1
								{
									OFFSET -0.750000 0.000000 0.000000
									CHANNELS 3 Zrotation Yrotation Xrotation
									End Site
									{
										OFFSET 0.000000 0.000000 0.000000
									}
								}
							}
						}
					}
				}
			}
		}
	}
}
MOTION
Frames: 7
Frame Time: 0.016667
7.690750 16.118410 -3.019740 -176.908959 71.889379 175.073288 -15.644748 11.557418 3.768723 -3.232459 -8.486773 -19.912312 -11.154142 13.308120 42.528581 0.401250 8.609048 1.574428 0.178560 -0.058300 0.105370 17.963053 -10.093799 3.760312 -39.082615 -2.615638 -25.886154 2.284326 -4.987163 6.823580 -0.189038 -4.359738 2.541526 0.070910 0.213270 0.106970 -4.056274 0.112794 -8.604045 12.039745 0.294752 25.395658 -4.770052 3.517923 14.824282 3.845170 5.098007 -19.631997 11.503182 -21.679962 20.041982 1.502050 -18.495580 -16.019150 -10.538046 -22.663268 8.413088 -8.930196 0.556424 -3.197741 22.563425 -9.768725 -2.628430 -3.948970 2.903348 0.383620 0.016670 -0.117050 0.019260 1.187067 25.897777 15.439826 13.899227 9.103726 -0.498864 -12.340958 -9.570254 0.587242 2.853779 -1.156290 -0.212770 0.278160 0.195430 -0.113180 
7.721730 16.191530 -3.078010 -173.739892 76.458583 176.953686 -15.646481 11.633962 3.530098 -2.342735 -7.756544 -16.592900 -12.854915 12.943988 38.812727 0.544194 7.976125 1.804869 0.160630 -0.037410 0.068000 17.983365 -10.015208 3.948575 -42.916316 -3.176845 -22.415959 8.098952 -6.785567 9.774260 -0.297152 -5.253210 2.240756 -0.028380 0.113490 0.106950 -4.025602 -0.260090 -8.650423 12.700408 -1.137394 28.507483 -5.452819 2.742796 14.198301 3.407167 4.686338 -20.780270 11.231124 -21.955464 20.113745 3.961220 -19.029250 -16.004990 -5.964656 -20.976488 7.917148 -15.544285 0.857359 -4.893670 27.122594 -6.229046 -2.472389 -3.879601 3.077470 0.347970 -0.060260 -0.049440 0.038860 -2.982266 25.282623 18.017979 21.379641 2.346728 -2.345590 -18.261360 -2.223453 -0.171883 2.751920 -1.430007 -0.091890 0.147730 0.114930 -0.057310 
7.760310 16.350300 -3.212510 -153.244042 80.194554 -165.116275 -15.152255 12.368980 3.408165 -0.530607 -6.469999 -12.119323 -12.441640 11.366931 34.653886 0.682352 7.036952 2.138292 0.174260 0.001770 0.057930 18.304246 -10.484468 3.667046 -42.585154 -3.633474 -18.863661 9.470380 -8.475210 15.656783 -0.423141 -5.613594 2.125009 -0.163950 -0.024910 0.134060 -3.689037 -1.209797 -8.594206 18.517080 -5.151083 31.301678 -8.623168 1.475981 10.215577 3.291771 3.255347 -20.800398 6.026870 -21.806759 27.841977 6.742380 -21.895290 -16.544370 -6.940283 -21.220560 7.232511 -11.388278 -5.938536 -2.400222 15.808075 13.484560 0.732957 -4.138449 2.921784 0.326920 -0.202480 0.083660 0.072910 -1.869487 25.047442 19.047025 20.843363 -3.672263 -1.740780 -12.521580 -3.103904 0.706558 2.928452 -1.246986 0.096420 0.010300 0.006420 0.043940 
7.818310 16.555120 -3.308490 -88.169589 83.147929 -99.832723 -15.046219 13.646632 3.476250 1.728033 -4.931822 -11.338164 -11.679838 10.409869 30.729221 0.505958 6.513843 2.322958 0.034230 -0.225320 -0.014560 18.229301 -10.346321 3.222387 -39.638423 -2.193135 -19.367757 8.976634 -9.106808 21.478217 -0.345276 -5.427623 2.202019 -0.280960 0.025520 0.092390 -3.383607 -1.563678 -8.443198 23.422911 -8.478367 34.271179 -12.318951 1.319762 2.654814 3.698077 1.220158 -19.944830 1.808879 -17.850613 31.448576 8.941640 -20.736750 -15.071620 -8.397804 -15.702695 6.739667 -14.620197 3.097108 -2.978819 19.334608 2.008469 -0.094445 -3.853260 2.955184 0.405290 -0.214580 0.018170 0.029060 -1.966612 22.664549 18.051344 17.794344 -1.764045 -1.594564 -6.449050 -10.902256 1.162643 3.119531 -0.956569 -0.001650 0.018280 0.095230 -0.001270 
7.874940 16.759700 -3.359600 -30.190931 75.894024 -46.137676 -15.574292 14.066231 3.386621 2.573424 -2.763731 -5.506900 -10.617080 9.932595 27.848028 0.531199 6.370023 2.469870 0.040750 -0.151600 -0.115780 17.551738 -11.033516 2.598913 -35.225360 -0.747119 -14.897844 6.770055 -8.534906 25.517761 -0.292612 -5.520772 2.272420 -0.189520 0.220660 0.075480 -3.822403 -1.590473 -8.008780 24.048236 -12.169041 39.640502 -15.614268 0.562935 8.473374 5.230051 -1.107523 -22.545270 0.659329 -10.658642 27.018594 9.209640 -14.339870 -12.105320 1.030582 -11.912184 5.329773 -26.082630 6.100630 -4.292265 16.832339 3.291026 0.325827 -4.063777 2.933706 0.292950 -0.079660 -0.088210 0.120670 -14.977597 27.857822 21.713351 26.811003 5.035345 -0.833059 2.869761 -16.723212 -0.690275 3.044117 -0.793298 -0.051980 0.104440 0.097830 0.057950 
8.188530 16.988380 -3.331390 -22.451279 71.924834 -28.053042 -15.429775 14.503280 3.683565 -1.575818 -2.550053 -9.596625 -9.118432 7.680523 20.653330 0.244448 5.010337 2.965220 -0.172810 -0.454740 -0.244720 17.650045 -10.229112 3.371272 -35.245452 -0.054381 -22.544945 11.841268 -10.556567 27.076128 -0.137065 -5.887486 2.130125 -0.307310 0.341690 0.080410 -2.415033 -4.693764 -8.467864 23.480919 -8.901340 35.651428 -14.434152 2.893382 -18.000987 4.086556 -1.614401 -19.243738 -1.113550 -9.138054 33.651028 2.751780 -14.516270 -1.979340 3.578726 3.885686 -3.338527 -30.795068 2.180118 -3.659413 19.183110 -1.773497 0.642241 -4.271985 2.784473 0.185500 0.040990 -0.264850 0.059660 -18.236317 20.977942 21.124736 36.581580 4.203488 -0.938456 -7.405022 -14.047163 1.827145 3.109180 -1.119369 -0.131590 0.056130 0.240320 0.048400 
8.456430 17.172080 -3.300870 -23.301972 67.252722 -18.617852 -15.619593 14.246537 3.686426 -5.021509 -3.624242 -16.933032 -4.454576 5.031639 16.354929 -0.042652 3.461591 3.490353 -0.166750 -0.510490 -0.091950 17.588326 -9.420657 4.199040 -35.510834 0.201193 -28.637839 20.114565 -16.010532 31.409801 -0.432193 -7.355456 1.636769 -0.383200 0.210380 0.152970 -2.459634 -5.285900 -8.937283 26.180358 -5.121526 25.335350 -13.279608 4.355125 -27.441646 5.466484 0.675724 -15.490378 1.048576 -12.652538 33.143177 -4.806070 -13.139850 2.343710 -0.745963 8.300430 -1.928356 -20.866232 10.633937 -3.221509 11.049312 -23.173167 0.735948 -3.887187 3.039624 0.177190 0.070330 -0.218250 0.009540 -14.879521 9.090945 15.237286 29.436395 -0.067211 -2.368368 -9.122742 -7.184748 1.257252 3.046592 -1.223512 -0.076080 -0.101050 0.171040 -0.030450 
